{
  "accessors": [
    {
      "bufferView": 2,
      "componentType": 5126,
      "count": 478,
      "max": [
        12.363382339477539,
        34.620880126953125,
        20.87137222290039
      ],
      "min": [
        -11.759834289550781,
        2.5892293453216553,
        -14.80372142791748
      ],
      "type": "VEC3"
    },
    {
      "bufferView": 2,
      "byteOffset": 5736,
      "componentType": 5126,
      "count": 478,
      "max": [
        0.9942849278450012,
        1.0,
        0.9996569156646729
      ],
      "min": [
        -0.994284987449646,
        -1.0,
        -0.9999498128890991
      ],
      "type": "VEC3"
    },
    {
      "bufferView": 3,
      "componentType": 5126,
      "count": 478,
      "max": [
        1.0,
        0.9768306612968445,
        1.0,
        1.0
      ],
      "min": [
        -0.9639670848846436,
        -0.9999463558197021,
        -0.9999633431434631,
        -1.0
      ],
      "type": "VEC4"
    },
    {
      "bufferView": 1,
      "componentType": 5126,
      "count": 478,
      "max": [
        0.9960943460464478,
        0.9917910695075989
      ],
      "min": [
        0.004941076040267944,
        0.010549873113632202
      ],
      "type": "VEC2"
    },
    {
      "bufferView": 1,
      "byteOffset": 3824,
      "componentType": 5126,
      "count": 478,
      "max": [
        0.9960943460464478,
        0.9917910695075989
      ],
      "min": [
        0.004941076040267944,
        0.010549873113632202
      ],
      "type": "VEC2"
    },
    {
      "bufferView": 1,
      "byteOffset": 7648,
      "componentType": 5126,
      "count": 478,
      "max": [
        0.9960943460464478,
        0.9917910695075989
      ],
      "min": [
        0.004941076040267944,
        0.010549873113632202
      ],
      "type": "VEC2"
    },
    {
      "bufferView": 1,
      "byteOffset": 11472,
      "componentType": 5126,
      "count": 478,
      "max": [
        0.9960943460464478,
        0.9917910695075989
      ],
      "min": [
        0.004941076040267944,
        0.010549873113632202
      ],
      "type": "VEC2"
    },
    {
      "bufferView": 1,
      "byteOffset": 15296,
      "componentType": 5126,
      "count": 478,
      "max": [
        0.9960943460464478,
        0.9917910695075989
      ],
      "min": [
        0.004941076040267944,
        0.010549873113632202
      ],
      "type": "VEC2"
    },
    {
      "bufferView": 0,
      "componentType": 5125,
      "count": 1662,
      "type": "SCALAR"
    }
  ],
  "asset": {
    "extras": {
      "author": "j-conrad (https://sketchfab.com/j-conrad)",
      "license": "CC-BY-4.0 (http://creativecommons.org/licenses/by/4.0/)",
      "source": "https://sketchfab.com/3d-models/ducky-mozillahubs-a4c500d7358a4a199b6a5cd35f416466",
      "title": "Ducky_MozillaHubs"
    },
    "generator": "Sketchfab-12.68.0",
    "version": "2.0"
  },
  "bufferViews": [
    {
      "buffer": 0,
      "byteLength": 6648,
      "name": "floatBufferViews",
      "target": 34963
    },
    {
      "buffer": 0,
      "byteLength": 19120,
      "byteOffset": 6648,
      "byteStride": 8,
      "name": "floatBufferViews",
      "target": 34962
    },
    {
      "buffer": 0,
      "byteLength": 11472,
      "byteOffset": 25768,
      "byteStride": 12,
      "name": "floatBufferViews",
      "target": 34962
    },
    {
      "buffer": 0,
      "byteLength": 7648,
      "byteOffset": 37240,
      "byteStride": 16,
      "name": "floatBufferViews",
      "target": 34962
    }
  ],
  "buffers": [
    {
      "byteLength": 44888,
      "uri": "scene.bin"
    }
  ],
  "images": [
    {
      "uri": "textures/DuckyMat_baseColor.jpeg"
    },
    {
      "uri": "textures/DuckyMat_metallicRoughness.png"
    },
    {
      "uri": "textures/DuckyMat_normal.png"
    }
  ],
  "materials": [
    {
      "name": "DuckyMat",
      "normalTexture": {
        "index": 2
      },
      "occlusionTexture": {
        "index": 1
      },
      "pbrMetallicRoughness": {
        "baseColorTexture": {
          "index": 0
        },
        "metallicRoughnessTexture": {
          "index": 1
        }
      }
    }
  ],
  "meshes": [
    {
      "name": "Ducky_DuckyMat_0",
      "primitives": [
        {
          "attributes": {
            "NORMAL": 1,
            "POSITION": 0,
            "TANGENT": 2,
            "TEXCOORD_0": 3,
            "TEXCOORD_1": 4,
            "TEXCOORD_2": 5,
            "TEXCOORD_3": 6,
            "TEXCOORD_4": 7
          },
          "indices": 8,
          "material": 0,
          "mode": 4
        }
      ]
    }
  ],
  "nodes": [
    {
      "children": [
        1
      ],
      "matrix": [
        0.009999999776482582,
        0.0,
        0.0,
        0.0,
        0.0,
        2.2204459996194763e-18,
        -0.009999999776482582,
        0.0,
        0.0,
        0.009999999776482582,
        2.2204459996194763e-18,
        0.0,
        0.0,
        0.0,
        0.0,
        1.0
      ],
      "name": "Sketchfab_model"
    },
    {
      "children": [
        2
      ],
      "matrix": [
        1.0,
        0.0,
        0.0,
        0.0,
        0.0,
        0.0,
        1.0,
        0.0,
        0.0,
        -1.0,
        0.0,
        0.0,
        0.0,
        0.0,
        0.0,
        1.0
      ],
      "name": "ed3d3236066a404ca3cd9ec4e3be5927.fbx"
    },
    {
      "children": [
        3
      ],
      "name": "RootNode"
    },
    {
      "children": [
        4
      ],
      "name": "Ducky"
    },
    {
      "mesh": 0,
      "name": "Ducky_DuckyMat_0"
    }
  ],
  "samplers": [
    {
      "magFilter": 9729,
      "minFilter": 9987,
      "wrapS": 10497,
      "wrapT": 10497
    }
  ],
  "scene": 0,
  "scenes": [
    {
      "name": "Sketchfab_Scene",
      "nodes": [
        0
      ]
    }
  ],
  "textures": [
    {
      "sampler": 0,
      "source": 0
    },
    {
      "sampler": 0,
      "source": 1
    },
    {
      "sampler": 0,
      "source": 2
    }
  ]
}
